<svg width="87" height="93" viewBox="0 0 87 93" fill="none" xmlns="http://www.w3.org/2000/svg">
<path fill-rule="evenodd" clip-rule="evenodd" d="M62.1429 1H13.994C10.5478 1 7.2427 2.29608 4.80581 4.60303C2.36902 6.91008 1 10.0391 1 13.3016C1 30.7479 1 62.4921 1 79.9384C1 83.2009 2.36902 86.3299 4.80581 88.637C7.2427 90.9439 10.5478 92.24 13.994 92.24C29.9515 92.24 56.8585 92.24 72.816 92.24C76.2622 92.24 79.5673 90.9439 82.0042 88.637C84.441 86.3299 85.81 83.2009 85.81 79.9384V23.4061L62.1429 1V1Z" fill="#EAD637" stroke="#3D3D3D" stroke-miterlimit="1.5" stroke-linecap="round" stroke-linejoin="round"/>
<path d="M29.0619 37.344V50.728C29.0619 52.8 28.4739 54.396 27.2979 55.516C26.1405 56.636 24.5725 57.196 22.5939 57.196C20.5219 57.196 18.8605 56.608 17.6099 55.432C16.3592 54.256 15.7339 52.5853 15.7339 50.42H20.4939C20.4939 51.2413 20.6619 51.8667 20.9979 52.296C21.3339 52.7067 21.8192 52.912 22.4539 52.912C23.0325 52.912 23.4805 52.7253 23.7979 52.352C24.1152 51.9787 24.2739 51.4373 24.2739 50.728V37.344H29.0619ZM47.9094 43.672C47.9094 44.8107 47.648 45.856 47.1254 46.808C46.6027 47.7413 45.8 48.4973 44.7174 49.076C43.6347 49.6547 42.2907 49.944 40.6854 49.944H37.7174V57H32.9294V37.344H40.6854C42.2534 37.344 43.5787 37.6147 44.6614 38.156C45.744 38.6973 46.556 39.444 47.0974 40.396C47.6387 41.348 47.9094 42.44 47.9094 43.672ZM40.3214 46.136C41.236 46.136 41.9174 45.9213 42.3654 45.492C42.8134 45.0627 43.0374 44.456 43.0374 43.672C43.0374 42.888 42.8134 42.2813 42.3654 41.852C41.9174 41.4227 41.236 41.208 40.3214 41.208H37.7174V46.136H40.3214ZM63.45 43.56C63.0953 42.9067 62.582 42.412 61.91 42.076C61.2567 41.7213 60.482 41.544 59.586 41.544C58.0367 41.544 56.7953 42.0573 55.862 43.084C54.9287 44.092 54.462 45.4453 54.462 47.144C54.462 48.9547 54.9473 50.3733 55.918 51.4C56.9073 52.408 58.2607 52.912 59.978 52.912C61.154 52.912 62.1433 52.6133 62.946 52.016C63.7673 51.4187 64.3647 50.56 64.738 49.44H58.662V45.912H69.078V50.364C68.7233 51.5587 68.1167 52.6693 67.258 53.696C66.418 54.7227 65.3447 55.5533 64.038 56.188C62.7313 56.8227 61.2567 57.14 59.614 57.14C57.6727 57.14 55.9367 56.72 54.406 55.88C52.894 55.0213 51.7087 53.836 50.85 52.324C50.01 50.812 49.59 49.0853 49.59 47.144C49.59 45.2027 50.01 43.476 50.85 41.964C51.7087 40.4333 52.894 39.248 54.406 38.408C55.918 37.5493 57.6447 37.12 59.586 37.12C61.938 37.12 63.9167 37.6893 65.522 38.828C67.146 39.9667 68.2193 41.544 68.742 43.56H63.45Z" fill="white"/>
</svg>
