<svg width="86" height="97" viewBox="0 0 86 97" fill="none" xmlns="http://www.w3.org/2000/svg">
<path fill-rule="evenodd" clip-rule="evenodd" d="M61.4216 1H13.8407C10.4352 1 7.16905 2.35287 4.76091 4.76091C2.35287 7.16905 1 10.4352 1 13.8407C1 32.0514 1 65.1866 1 83.3973C1 86.8029 2.35287 90.069 4.76091 92.4771C7.16905 94.8852 10.4352 96.238 13.8407 96.238C29.6099 96.238 56.1995 96.238 71.9688 96.238C75.3743 96.238 78.6404 94.8852 81.0485 92.4771C83.4566 90.069 84.8095 86.8029 84.8095 83.3973V24.3879L61.4216 1Z" fill="#EF3D3D" stroke="#3D3D3D" stroke-miterlimit="1.5" stroke-linecap="round" stroke-linejoin="round"/>
<path d="M32.7837 45.191C32.7837 46.3065 32.5277 47.3259 32.0157 48.2493C31.5037 49.1728 30.7174 49.9179 29.6568 50.4848C28.5962 51.0516 27.2797 51.335 25.7071 51.335H22.7997V58.247H18.1094V38.9922H25.7071C27.2431 38.9922 28.5414 39.2573 29.6019 39.7876C30.6625 40.3179 31.4579 41.0493 31.9882 41.9819C32.5185 42.9145 32.7837 43.9842 32.7837 45.191ZM25.3505 47.6048C26.2465 47.6048 26.9139 47.3945 27.3528 46.9739C27.7917 46.5533 28.0111 45.959 28.0111 45.191C28.0111 44.423 27.7917 43.8288 27.3528 43.4082C26.9139 42.9876 26.2465 42.7773 25.3505 42.7773H22.7997V47.6048H25.3505Z" fill="white"/>
<path d="M42.4325 38.9922C44.4622 38.9922 46.2359 39.3945 47.7536 40.199C49.2713 41.0036 50.4462 42.1328 51.2782 43.5865C52.1102 45.0402 52.5262 46.7179 52.5262 48.6196C52.5262 50.503 52.1102 52.1762 51.2782 53.639C50.4462 55.1019 49.2668 56.2356 47.7399 57.0402C46.213 57.8448 44.4439 58.247 42.4325 58.247H35.2188V38.9922H42.4325ZM42.1307 54.1876C43.9045 54.1876 45.285 53.703 46.2725 52.7339C47.2599 51.7648 47.7536 50.3933 47.7536 48.6196C47.7536 46.8459 47.2599 45.4653 46.2725 44.4779C45.285 43.4905 43.9045 42.9968 42.1307 42.9968H39.909V54.1876H42.1307Z" fill="white"/>
<path d="M67.6989 38.9922V42.7499H59.8544V46.8093H65.7241V50.4573H59.8544V58.247H55.1641V38.9922H67.6989Z" fill="white"/>
</svg>
